<?xml version="1.0" standalone="no"?>
<!DOCTYPE svg PUBLIC "-//W3C//DTD SVG 20010904//EN"
 "http://www.w3.org/TR/2001/REC-SVG-20010904/DTD/svg10.dtd">
<svg version="1.0" xmlns="http://www.w3.org/2000/svg"
 width="700.000000pt" height="700.000000pt" viewBox="0 0 700.000000 700.000000"
 preserveAspectRatio="xMidYMid meet">
<metadata>
Created by potrace 1.11, written by Peter Selinger 2001-2013
</metadata>
<g transform="translate(0.000000,700.000000) scale(0.100000,-0.100000)"
fill="#000000" stroke="none">
<path d="M2772 6987 c-114 -42 -175 -178 -129 -288 20 -50 44 -76 97 -107 l45
-27 247 0 248 0 1 -60 c3 -314 0 -389 -13 -391 -7 -1 -44 -5 -83 -8 -364 -36
-726 -142 -1060 -311 -163 -82 -354 -198 -435 -264 -25 -21 -66 -52 -91 -70
l-47 -33 -117 116 c-119 118 -170 154 -255 174 -157 37 -331 -59 -390 -215
-21 -57 -27 -136 -15 -193 16 -77 48 -124 171 -250 l125 -128 -23 -35 c-13
-20 -46 -69 -75 -110 -276 -397 -455 -873 -513 -1362 -20 -169 -27 -441 -15
-560 2 -22 6 -69 9 -105 42 -456 194 -905 444 -1310 59 -96 215 -312 252 -350
8 -9 28 -31 44 -50 15 -19 56 -64 91 -100 302 -316 662 -562 1060 -724 111
-45 367 -128 440 -142 22 -5 42 -9 45 -9 14 -3 131 -26 175 -35 28 -5 73 -12
100 -15 28 -3 79 -8 115 -12 85 -9 465 -10 555 -1 60 6 145 18 245 33 112 17
366 80 425 105 11 5 38 14 60 21 22 6 89 31 148 55 823 334 1469 1022 1751
1864 48 146 105 376 121 497 3 21 7 52 10 68 5 36 13 117 20 205 6 72 6 325 0
410 -4 61 -16 177 -20 200 -2 8 -6 38 -9 65 -24 179 -95 437 -175 637 -99 250
-186 414 -328 621 -41 59 -73 112 -71 117 2 4 62 68 133 142 72 73 139 151
150 173 115 240 -62 514 -323 500 -113 -6 -164 -37 -323 -196 l-120 -121 -82
63 c-45 35 -84 66 -87 69 -12 13 -232 152 -310 196 -195 109 -446 212 -665
274 -60 17 -121 33 -135 35 -14 3 -36 7 -50 10 -147 29 -230 43 -320 50 -117
11 -105 -17 -103 231 1 119 4 218 7 221 3 3 115 6 248 7 l243 1 47 28 c129 75
149 248 41 349 -63 58 -59 58 -811 57 -502 0 -696 -4 -720 -12z"/>
</g>
</svg>
